<?xml version="1.0" encoding="UTF-8"?>
<svg version="1.1" xmlns="http://www.w3.org/2000/svg" width="233" height="85">
<path d="M0 0 C4.13855857 2.93054688 8.06751593 6.21706971 11.25 10.1875 C11.25 10.8475 11.25 11.5075 11.25 12.1875 C8.39436289 10.89507803 6.45050476 9.52446572 4.25 7.3125 C-3.25323535 0.79905315 -12.42574039 -0.27208901 -22.03515625 -0.05078125 C-24.84412317 0.08994668 -24.84412317 0.08994668 -27.75 1.1875 C-27.09515625 1.08050781 -26.4403125 0.97351563 -25.765625 0.86328125 C-14.01653823 -0.680031 -5.0979369 2.06242708 4.25 9.1875 C5.24 9.8475 6.23 10.5075 7.25 11.1875 C7.25 11.8475 7.25 12.5075 7.25 13.1875 C-6.06862906 13.89888078 -6.06862906 13.89888078 -11.75 9.1875 C-19.57313501 6.05383238 -28.19279937 5.90160069 -36.125 8.8125 C-40.72466486 10.90189025 -44.11320353 13.70882512 -47.75 17.1875 C-48.08 16.8575 -48.41 16.5275 -48.75 16.1875 C-49.39910154 17.76949631 -50.04414694 19.35315724 -50.6875 20.9375 C-51.22697266 22.26007812 -51.22697266 22.26007812 -51.77734375 23.609375 C-55.1924516 32.66146811 -54.58838557 42.32604194 -50.75 51.1875 C-49.36286016 53.45349904 -49.36286016 53.45349904 -47.75 55.1875 C-47.09 55.1875 -46.43 55.1875 -45.75 55.1875 C-45.09 55.93 -44.43 56.6725 -43.75 57.4375 C-38.46646586 62.82854792 -31.60165105 64.43608741 -24.25 64.6875 C-17.52058635 64.48044112 -10.64918689 63.08668689 -5.75 58.1875 C-2.7109375 57.9921875 -2.7109375 57.9921875 0.875 58.0625 C2.06351562 58.08054687 3.25203125 58.09859375 4.4765625 58.1171875 C5.39179687 58.14039062 6.30703125 58.16359375 7.25 58.1875 C7.25 58.8475 7.25 59.5075 7.25 60.1875 C-2.02121327 67.92905635 -10.70841439 71.12840019 -22.75 71.1875 C-24.75734727 70.90172381 -26.76121382 70.58226658 -28.75 70.1875 C-20.20272349 72.77058356 -10.48179271 71.95114614 -2.296875 68.609375 C1.4579404 66.51312836 4.42899729 63.81301444 7.47265625 60.796875 C9.25 59.1875 9.25 59.1875 11.25 59.1875 C6.7466254 68.93773086 -2.33466838 73.12778332 -11.75 77.1875 C-21.08562236 79.91797126 -33.4736378 79.39157845 -42.36328125 75.51171875 C-53.40204653 69.38710102 -62.7295317 59.64192482 -66.29418945 47.30395508 C-68.77532247 35.78336476 -67.55817404 22.71016217 -61.20703125 12.7734375 C-46.48848435 -7.36773194 -21.44038207 -13.41822569 0 0 Z M-37.75 4.1875 C-38.08 4.8475 -38.41 5.5075 -38.75 6.1875 C-37.76 5.8575 -36.77 5.5275 -35.75 5.1875 C-36.41 4.8575 -37.07 4.5275 -37.75 4.1875 Z M-40.75 6.1875 C-41.08 6.8475 -41.41 7.5075 -41.75 8.1875 C-40.76 7.8575 -39.77 7.5275 -38.75 7.1875 C-39.41 6.8575 -40.07 6.5275 -40.75 6.1875 Z " fill="#376BA8" transform="translate(66.75,6.8125)"/>
<path d="M0 0 C20.13 0 40.26 0 61 0 C59 10 59 10 58 11 C56.52645652 11.09304018 55.04849409 11.11746265 53.57202148 11.11352539 C52.63112167 11.11344986 51.69022186 11.11337433 50.72080994 11.11329651 C49.69790359 11.10813522 48.67499725 11.10297394 47.62109375 11.09765625 C46.57929459 11.0962413 45.53749542 11.09482635 44.46412659 11.09336853 C41.12188906 11.0877508 37.77971743 11.0751953 34.4375 11.0625 C32.17773534 11.05748728 29.91796963 11.05292398 27.65820312 11.04882812 C22.10544609 11.03777561 16.55272775 11.02102024 11 11 C11 11.99 11 12.98 11 14 C17.93 14.495 17.93 14.495 25 15 C24.125 24.875 24.125 24.875 23 26 C20.46950598 26.07313567 17.96695163 26.09247527 15.4375 26.0625 C14.72658203 26.05798828 14.01566406 26.05347656 13.28320312 26.04882812 C11.52209987 26.03700864 9.76103964 26.01907263 8 26 C7.93941406 26.62648438 7.87882812 27.25296875 7.81640625 27.8984375 C7.73261719 28.71570313 7.64882813 29.53296875 7.5625 30.375 C7.48128906 31.18710937 7.40007813 31.99921875 7.31640625 32.8359375 C7 35 7 35 6 37 C1.71 37 -2.58 37 -7 37 C-5.79147378 28.74173748 -4.41492767 20.52651694 -2.9375 12.3125 C-2.7631543 11.33200684 -2.58880859 10.35151367 -2.40917969 9.34130859 C-2.1582959 7.95999756 -2.1582959 7.95999756 -1.90234375 6.55078125 C-1.67792603 5.30808472 -1.67792603 5.30808472 -1.44897461 4.0402832 C-1 2 -1 2 0 0 Z " fill="#254182" transform="translate(30,24)"/>
<path d="M0 0 C3.8125 0.625 3.8125 0.625 5.3984375 2.28125 C6.990727 4.67389665 8.41237583 7.11506612 9.8125 9.625 C10.93435699 11.48107002 12.05926847 13.33529789 13.1875 15.1875 C14.06475199 16.66533219 14.94059876 18.14400464 15.8125 19.625 C17.29852395 15.37367932 18.45125478 11.14327415 19.4375 6.75 C19.69789062 5.59757812 19.95828125 4.44515625 20.2265625 3.2578125 C20.41992188 2.38898437 20.61328125 1.52015625 20.8125 0.625 C23.7825 0.625 26.7525 0.625 29.8125 0.625 C29.17185018 8.42927963 27.88544669 15.95800842 26.3125 23.625 C26.08691406 24.75550781 25.86132812 25.88601562 25.62890625 27.05078125 C23.94862928 35.35274145 23.94862928 35.35274145 22.8125 37.625 C19.6875 38.1875 19.6875 38.1875 15.8125 37.625 C13.25402992 34.96595125 11.60216068 31.83323687 9.8125 28.625 C8.69064301 26.76892998 7.56573153 24.91470211 6.4375 23.0625 C5.56024801 21.58466781 4.68440124 20.10599536 3.8125 18.625 C1.6297154 22.30726271 0.9566596 26.22310785 0.1875 30.375 C0.0534375 31.07238281 -0.080625 31.76976563 -0.21875 32.48828125 C-0.54693264 34.19951932 -0.86793502 35.91213171 -1.1875 37.625 C-4.4875 37.625 -7.7875 37.625 -11.1875 37.625 C-10.39646743 33.49987815 -9.60455685 29.3749253 -8.8125 25.25 C-8.59078125 24.09371094 -8.3690625 22.93742187 -8.140625 21.74609375 C-7.7011706 19.45834585 -7.26011391 17.1709051 -6.81738281 14.88378906 C-6.4112176 12.78243506 -6.00920931 10.68027124 -5.61230469 8.57714844 C-5.43860352 7.67254883 -5.26490234 6.76794922 -5.0859375 5.8359375 C-4.93560059 5.0423584 -4.78526367 4.2487793 -4.63037109 3.43115234 C-3.87300523 0.34240225 -3.31766682 0.65052291 0 0 Z " fill="#50A4DB" transform="translate(98.1875,23.375)"/>
<path d="M0 0 C6.15234375 -0.09765625 6.15234375 -0.09765625 8 0 C10.38937119 2.38937119 10.04991209 7.85874318 10.5 11.09375 C10.69242705 13.88475283 10.69242705 13.88475283 12 15 C12.56589844 14.00097656 13.13179687 13.00195312 13.71484375 11.97265625 C14.4556442 10.66922254 15.19653425 9.36583975 15.9375 8.0625 C16.31068359 7.40314453 16.68386719 6.74378906 17.06835938 6.06445312 C19.88671875 1.11328125 19.88671875 1.11328125 21 0 C23.33297433 -0.04092937 25.66705225 -0.04241723 28 0 C29.4512573 4.97573932 30.76368629 9.96643704 32 15 C32.56589844 14.00097656 33.13179687 13.00195312 33.71484375 11.97265625 C34.4556442 10.66922254 35.19653425 9.36583975 35.9375 8.0625 C36.31068359 7.40314453 36.68386719 6.74378906 37.06835938 6.06445312 C39.88671875 1.11328125 39.88671875 1.11328125 41 0 C43.67058851 -0.14115161 46.32432238 -0.04247107 49 0 C47.44045507 5.48924571 44.86332815 10.13579074 42.0625 15.0625 C41.61970703 15.85205078 41.17691406 16.64160156 40.72070312 17.45507812 C39.86651577 18.97377486 39.00479817 20.48826827 38.13452148 21.99780273 C37.19799111 23.65058637 36.32787091 25.34081137 35.4765625 27.0390625 C34 29 34 29 31.73828125 29.48828125 C28.36914062 29.24414062 28.36914062 29.24414062 25 29 C23.515 21.575 23.515 21.575 22 14 C21.43410156 14.99902344 20.86820313 15.99804688 20.28515625 17.02734375 C19.5443558 18.33077746 18.80346575 19.63416025 18.0625 20.9375 C17.68931641 21.59685547 17.31613281 22.25621094 16.93164062 22.93554688 C14.11328125 27.88671875 14.11328125 27.88671875 13 29 C10.32941149 29.14115161 7.67567762 29.04247107 5 29 C4.16036331 24.91793652 3.32938441 20.8341578 2.5 16.75 C2.26152344 15.59113281 2.02304688 14.43226562 1.77734375 13.23828125 C1.55175781 12.12324219 1.32617188 11.00820313 1.09375 9.859375 C0.88427734 8.83295898 0.67480469 7.80654297 0.45898438 6.74902344 C0 4 0 4 0 0 Z " fill="#50A4DB" transform="translate(161,32)"/>
<path d="M0 0 C3.98024229 3.51197849 5.99823659 6.32848636 6.4375 11.6875 C6.125 14.875 6.125 14.875 5.125 15.875 C3.63861008 16.03155027 2.14550873 16.12566943 0.65234375 16.19140625 C-0.24677734 16.23330078 -1.14589844 16.27519531 -2.07226562 16.31835938 C-3.01779297 16.35767578 -3.96332031 16.39699219 -4.9375 16.4375 C-5.88689453 16.48068359 -6.83628906 16.52386719 -7.81445312 16.56835938 C-10.16781353 16.67479276 -12.52128354 16.77681008 -14.875 16.875 C-14.545 17.535 -14.215 18.195 -13.875 18.875 C-8.99848635 20.26828961 -5.61406631 19.48628254 -0.875 17.875 C2.125 22.625 2.125 22.625 2.125 24.875 C-4.05930471 28.10159376 -10.13768852 29.36260435 -16.96484375 27.21875 C-20.24826788 25.60827558 -21.93723854 23.78069918 -23.9375 20.75 C-25.43329746 14.56737049 -24.37082486 9.38584887 -21.125 3.9375 C-15.07500441 -1.60832929 -7.68165418 -3.00586468 0 0 Z M-14.875 9.875 C-10.915 9.875 -6.955 9.875 -2.875 9.875 C-3.535 8.555 -4.195 7.235 -4.875 5.875 C-10.37596946 5.37491187 -10.6128516 5.6128516 -14.875 9.875 Z " fill="#50A5DC" transform="translate(152.875,33.125)"/>
<path d="M0 0 C1.04027344 -0.01417969 2.08054688 -0.02835938 3.15234375 -0.04296875 C6.01296613 0.18357718 7.63920151 0.71016381 10.0625 2.1875 C9.4025 4.4975 8.7425 6.8075 8.0625 9.1875 C7.423125 9.0225 6.78375 8.8575 6.125 8.6875 C2.08663348 8.02817485 -1.85557258 8.10746221 -5.9375 8.1875 C-5.9375 8.8475 -5.9375 9.5075 -5.9375 10.1875 C-5.27363281 10.27386719 -4.60976562 10.36023437 -3.92578125 10.44921875 C0.5284766 11.15799847 3.51416032 11.80043669 7.25 14.4375 C9.0625 17.1875 9.0625 17.1875 9.1875 20.1875 C7.80687952 23.86915461 6.06669783 25.68400181 3.0625 28.1875 C-3.52696108 30.38398703 -11.59554899 30.00614489 -17.9375 27.1875 C-17.32472388 24.22574877 -16.68377478 22.80691217 -14.9375 20.1875 C-14.02226562 20.2596875 -13.10703125 20.331875 -12.1640625 20.40625 C-10.97554687 20.4990625 -9.78703125 20.591875 -8.5625 20.6875 C-6.78746094 20.82671875 -6.78746094 20.82671875 -4.9765625 20.96875 C-3.29963157 21.08945454 -1.61876944 21.1875 0.0625 21.1875 C0.0625 20.5275 0.0625 19.8675 0.0625 19.1875 C-0.60136719 19.10113281 -1.26523438 19.01476562 -1.94921875 18.92578125 C-6.4034766 18.21700153 -9.38916032 17.57456331 -13.125 14.9375 C-14.9375 12.1875 -14.9375 12.1875 -15.0625 9.1875 C-13.68187952 5.50584539 -11.94169783 3.69099819 -8.9375 1.1875 C-5.74593552 0.12364517 -3.35252524 0.02072018 0 0 Z " fill="#50A5DC" transform="translate(222.9375,31.8125)"/>
<path d="M0 0 C4.29 0 8.58 0 13 0 C12.36051919 7.54587353 10.78232739 14.63821297 9 22 C4.71 22 0.42 22 -4 22 C-3.36051919 14.45412647 -1.78232739 7.36178703 0 0 Z " fill="#264283" transform="translate(66,39)"/>
<path d="M0 0 C1.77503906 0.03480469 1.77503906 0.03480469 3.5859375 0.0703125 C5.36871094 0.09738281 5.36871094 0.09738281 7.1875 0.125 C8.10273437 0.14820312 9.01796875 0.17140625 9.9609375 0.1953125 C9.9609375 0.8553125 9.9609375 1.5153125 9.9609375 2.1953125 C0.88255053 9.77585695 -8.12418852 13.67403512 -20.0390625 13.1953125 C-25.78412941 11.98191475 -31.13234161 10.46645976 -36.0390625 7.1953125 C-35.7090625 6.2053125 -35.3790625 5.2153125 -35.0390625 4.1953125 C-33.70875 4.6903125 -33.70875 4.6903125 -32.3515625 5.1953125 C-23.01394167 7.80379767 -13.50427854 6.90011817 -5.0390625 2.1953125 C-3.0390625 0.1953125 -3.0390625 0.1953125 0 0 Z " fill="#2B508F" transform="translate(64.0390625,64.8046875)"/>
<path d="M0 0 C1.65 0 3.3 0 5 0 C5 0.66 5 1.32 5 2 C5.66 2 6.32 2 7 2 C7 1.34 7 0.68 7 0 C12 0 17 0 22 0 C23.7634375 -0.061875 23.7634375 -0.061875 25.5625 -0.125 C29 0 29 0 31 2 C32.32 1.34 33.64 0.68 35 0 C35 0.99 35 1.98 35 3 C35.66 2.01 36.32 1.02 37 0 C37.99 0.33 38.98 0.66 40 1 C40.66 0.67 41.32 0.34 42 0 C43.99960012 -0.039992 46.00047242 -0.04346799 48 0 C47.67 2.31 47.34 4.62 47 7 C28 7 28 7 25.5625 6.4375 C23.08163578 5.83709289 23.08163578 5.83709289 21 6.5 C18.3881078 7.15297305 16.59334324 6.64833581 14 6 C13.236875 5.814375 12.47375 5.62875 11.6875 5.4375 C11.130625 5.293125 10.57375 5.14875 10 5 C10 5.66 10 6.32 10 7 C9.2575 6.814375 8.515 6.62875 7.75 6.4375 C5.01444245 6.00229766 3.59300379 6.19527469 1 7 C0.34 7 -0.32 7 -1 7 C-0.67 4.69 -0.34 2.38 0 0 Z M8 2 C9 5 9 5 9 5 Z M16 2 C15.67 2.99 15.34 3.98 15 5 C16.32 4.67 17.64 4.34 19 4 C19 3.34 19 2.68 19 2 C18.01 2 17.02 2 16 2 Z M43 2 C44.485 2.99 44.485 2.99 46 4 C46 3.34 46 2.68 46 2 C45.01 2 44.02 2 43 2 Z M40 3 C40 3.66 40 4.32 40 5 C40.99 4.67 41.98 4.34 43 4 C42.01 3.67 41.02 3.34 40 3 Z " fill="#264283" transform="translate(183,65)"/>
<path d="M0 0 C3.86292328 2.77668826 3.86292328 2.77668826 5.59765625 4.47265625 C5.59765625 5.13265625 5.59765625 5.79265625 5.59765625 6.47265625 C-7.49466122 7.17194917 -7.49466122 7.17194917 -13.40234375 2.47265625 C-20.67369972 -1.04081407 -28.4591339 -1.19967222 -36.40234375 -1.52734375 C-35.40234375 -3.52734375 -35.40234375 -3.52734375 -33.06640625 -4.4140625 C-21.04156463 -7.5825619 -10.64777199 -6.7695591 0 0 Z " fill="#4386C0" transform="translate(68.40234375,13.52734375)"/>
<path d="M0 0 C0.99 0.33 1.98 0.66 3 1 C3 2.32 3 3.64 3 5 C3.99 5 4.98 5 6 5 C6 4.01 6 3.02 6 2 C5.34 2 4.68 2 4 2 C4 1.34 4 0.68 4 0 C9.61 0 15.22 0 21 0 C21.33 0.66 21.66 1.32 22 2 C22.33 1.34 22.66 0.68 23 0 C25 0 27 0 29 0 C28.67 2.31 28.34 4.62 28 7 C27.34 7 26.68 7 26 7 C25.67 6.34 25.34 5.68 25 5 C24.67 5.66 24.34 6.32 24 7 C15.09 7 6.18 7 -3 7 C-1 2 -1 2 0 0 Z M16 2 C15.67 2.99 15.34 3.98 15 5 C15.66 5 16.32 5 17 5 C17.33 4.01 17.66 3.02 18 2 C17.34 2 16.68 2 16 2 Z " fill="#264283" transform="translate(151,65)"/>
<path d="M0 0 C0.99 0.66 1.98 1.32 3 2 C3.33 1.34 3.66 0.68 4 0 C6.64 0 9.28 0 12 0 C11.67 1.65 11.34 3.3 11 5 C11.66 5 12.32 5 13 5 C13.33 3.35 13.66 1.7 14 0 C17.34252724 -0.07427838 19.8035914 -0.06546953 23 1 C23.99 0.67 24.98 0.34 26 0 C26.33 2.31 26.66 4.62 27 7 C16.66666667 7 6.33333333 7 -4 7 C-2.92598892 4.08482708 -2.22189824 2.22189824 0 0 Z M15 1 C16 4 16 4 16 4 Z M8 2 C8 5 8 5 8 5 Z " fill="#264283" transform="translate(90,65)"/>
<path d="M0 0 C0.66 0 1.32 0 2 0 C2 0.99 2 1.98 2 3 C2.38800781 2.50886719 2.77601562 2.01773438 3.17578125 1.51171875 C5.61211696 -0.50725753 7.06930672 -0.30898805 10.1875 -0.1875 C11.08855469 -0.16042969 11.98960937 -0.13335937 12.91796875 -0.10546875 C13.94857422 -0.05326172 13.94857422 -0.05326172 15 0 C15.33 0.66 15.66 1.32 16 2 C16.33 1.34 16.66 0.68 17 0 C18.32 0 19.64 0 21 0 C21 0.66 21 1.32 21 2 C21.66 2 22.32 2 23 2 C23 1.34 23 0.68 23 0 C23.66 0 24.32 0 25 0 C23.125 4.75 23.125 4.75 22 7 C21.34 7 20.68 7 20 7 C19.67 6.34 19.34 5.68 19 5 C18.67 5.66 18.34 6.32 18 7 C17.34 7 16.68 7 16 7 C15.67 6.34 15.34 5.68 15 5 C14.67 5.66 14.34 6.32 14 7 C9 7 4 7 -1 7 C-0.67 4.69 -0.34 2.38 0 0 Z M9 2 C10.98 2.99 10.98 2.99 13 4 C13 3.34 13 2.68 13 2 C11.68 2 10.36 2 9 2 Z " fill="#264283" transform="translate(125,65)"/>
<path d="M0 0 C0.99 0.66 1.98 1.32 3 2 C3 2.66 3 3.32 3 4 C-10.4490064 4.71834456 -10.4490064 4.71834456 -16 0 C-17.64619113 -0.71573527 -19.30728055 -1.4025696 -21 -2 C-21 -2.33 -21 -2.66 -21 -3 C-18.62536492 -3.27794711 -16.2545801 -3.52273673 -13.875 -3.75 C-13.20984375 -3.83121094 -12.5446875 -3.91242187 -11.859375 -3.99609375 C-6.59797743 -4.46033471 -4.06941324 -3.23193979 0 0 Z " fill="#3A71AE" transform="translate(71,16)"/>
<path d="M0 0 C1.17046875 0.03609375 2.3409375 0.0721875 3.546875 0.109375 C4.43890625 0.15578125 5.3309375 0.2021875 6.25 0.25 C6.25 0.91 6.25 1.57 6.25 2.25 C2.35575528 5.29170135 -0.23813627 5.52066485 -5.0625 4.9375 C-6.66544922 4.75767578 -6.66544922 4.75767578 -8.30078125 4.57421875 C-9.10902344 4.46722656 -9.91726562 4.36023438 -10.75 4.25 C-7.43152371 0.07726249 -5.22729025 -0.20909161 0 0 Z " fill="#3D79B4" transform="translate(67.75,64.75)"/>
<path d="M0 0 C-7.59 0 -15.18 0 -23 0 C-16.6099427 -4.2600382 -6.40623849 -4.27082566 0 0 Z " fill="#4C9CD4" transform="translate(59,10)"/>
<path d="M0 0 C2.12493141 -0.02693575 4.24995912 -0.04636628 6.375 -0.0625 C7.55835937 -0.07410156 8.74171875 -0.08570312 9.9609375 -0.09765625 C13 0 13 0 15 1 C15 1.66 15 2.32 15 3 C12.87561661 3.08078641 10.7503677 3.13909141 8.625 3.1875 C7.44164063 3.22230469 6.25828125 3.25710937 5.0390625 3.29296875 C3.53472656 3.14794922 3.53472656 3.14794922 2 3 C1.34 2.01 0.68 1.02 0 0 Z " fill="#2D5392" transform="translate(59,17)"/>
<path d="M0 0 C-4.62 0 -9.24 0 -14 0 C-14.33 -0.66 -14.66 -1.32 -15 -2 C-13.06494977 -2.24900646 -11.12674066 -2.47356242 -9.1875 -2.6875 C-7.56908203 -2.87892578 -7.56908203 -2.87892578 -5.91796875 -3.07421875 C-3 -3 -3 -3 0 0 Z " fill="#3463A1" transform="translate(71,17)"/>
<path d="M0 0 C2 0 2 0 4.4375 2.3125 C5.283125 3.199375 6.12875 4.08625 7 5 C7.598125 5.598125 8.19625 6.19625 8.8125 6.8125 C9.204375 7.204375 9.59625 7.59625 10 8 C6 8 6 8 4.296875 6.7578125 C3.78640625 6.21898438 3.2759375 5.68015625 2.75 5.125 C2.22921875 4.59132813 1.7084375 4.05765625 1.171875 3.5078125 C0 2 0 2 0 0 Z " fill="#3F7FBA" transform="translate(19,62)"/>
<path d="M0 0 C1.98 0 3.96 0 6 0 C6 0.66 6 1.32 6 2 C5.01 2.495 5.01 2.495 4 3 C3.34786708 5.02463255 3.34786708 5.02463255 3 7 C2.34 7 1.68 7 1 7 C0.67 4.69 0.34 2.38 0 0 Z " fill="#264283" transform="translate(117,65)"/>
<path d="M0 0 C2.97 0.99 5.94 1.98 9 3 C9 3.33 9 3.66 9 4 C6.03 4 3.06 4 0 4 C0 2.68 0 1.36 0 0 Z " fill="#305998" transform="translate(29,69)"/>
</svg>
